<svg xmlns="http://www.w3.org/2000/svg" viewBox="0 0 48 48"><svg xmlns="http://www.w3.org/2000/svg" xmlns:xlink="http://www.w3.org/1999/xlink" id="Layer_1" x="0" y="0" version="1.1" viewBox="0 0 62.27 71.11" xml:space="preserve"><style>.st0{fill:#b3b5b5}.st2{fill:#6d6e70}</style><path d="M32.04 13.43l5.3-3.06V3.06L32.04 0z" class="st0"/><path fill="#72bfbc" d="M12.53 45.25V24.69l17.71-10.22V0L.9 16.94c-.56.32-.9.92-.9 1.56v33.88c0 .03.01.07.01.1l12.52-7.23z"/><path d="M48.86 46.69L31.14 56.93 13.52 46.75.99 53.99l29.25 16.89a1.812 1.812 0 001.8 0l29.34-16.94c.01 0 .01-.01.02-.01l-12.54-7.24z" class="st2"/><path d="M61.38 16.94l-11.63-6.71v7.3l-12.5 7.22 12.5 7.21v13.16l12.53 7.23V18.5a1.84 1.84 0 00-.9-1.56z" class="st0"/><path d="M24.93 31.85l.01 14.33 12.16-7.02V24.83z" class="st2"/></svg></svg>