<svg xmlns="http://www.w3.org/2000/svg" fill="none" viewBox="0 0 38 38"><g filter="url(#filter0_d-627264)"><path fill="#44EFC1" d="M14.066 28.188H7v2.354h7.066v-2.355z"/><path stroke="#44EFC1" stroke-width=".923" d="M7.462 30.08v-1.43h6.142v1.43H7.462z"/></g><g filter="url(#filter1_d-330607)"><mask id="a" fill="#fff"><path d="M30.716 18.77H14.052V7h16.664l-3.413 5.887 3.413 5.884z"/></mask><path fill="#0C2344" d="M30.716 18.77H14.052V7h16.664l-3.413 5.887 3.413 5.884z"/><path fill="#44EFC1" d="M30.716 18.77v.924h1.602l-.804-1.386-.798.463zm-16.664 0h-.923v.924h.923v-.923zm0-11.77v-.923h-.923V7h.923zm16.664 0l.798.463.804-1.386h-1.602V7zm-3.413 5.887l-.8-.463-.268.463.269.463.799-.463zm3.413 4.96H14.052v1.847h16.664v-1.846zm-15.741.924V7h-1.846v11.77h1.846zm-.923-10.848h16.664V6.077H14.052v1.846zm15.865-1.386l-3.413 5.887 1.597.926 3.413-5.887-1.597-.926zm-3.413 6.813l3.413 5.884 1.597-.926-3.413-5.884-1.597.926z" mask="url(#a)"/></g><g filter="url(#filter2_d-927733)"><path fill="#44EFC1" d="M11.708 7H9.354v22.37h2.354V7z"/><path stroke="#44EFC1" stroke-width=".923" d="M9.815 28.908V7.462h1.431v21.446h-1.43z"/></g><defs><filter id="filter0_d-627264" width="20.914" height="16.202" x=".076" y="21.264" color-interpolation-filters="sRGB" filterUnits="userSpaceOnUse"><feFlood flood-opacity="0" result="BackgroundImageFix"/><feColorMatrix in="SourceAlpha" values="0 0 0 0 0 0 0 0 0 0 0 0 0 0 0 0 0 0 127 0"/><feOffset/><feGaussianBlur stdDeviation="3.462"/><feColorMatrix values="0 0 0 0 0.266667 0 0 0 0 0.937255 0 0 0 0 0.756863 0 0 0 0.6 0"/><feBlend in2="BackgroundImageFix" result="effect1_dropShadow"/><feBlend in="SourceGraphic" in2="effect1_dropShadow" result="shape"/></filter><filter id="filter1_d-330607" width="30.512" height="25.619" x="7.128" y=".076" color-interpolation-filters="sRGB" filterUnits="userSpaceOnUse"><feFlood flood-opacity="0" result="BackgroundImageFix"/><feColorMatrix in="SourceAlpha" values="0 0 0 0 0 0 0 0 0 0 0 0 0 0 0 0 0 0 127 0"/><feOffset/><feGaussianBlur stdDeviation="3.462"/><feColorMatrix values="0 0 0 0 0.266667 0 0 0 0 0.937255 0 0 0 0 0.756863 0 0 0 0.6 0"/><feBlend in2="BackgroundImageFix" result="effect1_dropShadow"/><feBlend in="SourceGraphic" in2="effect1_dropShadow" result="shape"/></filter><filter id="filter2_d-927733" width="16.202" height="36.218" x="2.429" y=".076" color-interpolation-filters="sRGB" filterUnits="userSpaceOnUse"><feFlood flood-opacity="0" result="BackgroundImageFix"/><feColorMatrix in="SourceAlpha" values="0 0 0 0 0 0 0 0 0 0 0 0 0 0 0 0 0 0 127 0"/><feOffset/><feGaussianBlur stdDeviation="3.462"/><feColorMatrix values="0 0 0 0 0.266667 0 0 0 0 0.937255 0 0 0 0 0.756863 0 0 0 0.6 0"/><feBlend in2="BackgroundImageFix" result="effect1_dropShadow"/><feBlend in="SourceGraphic" in2="effect1_dropShadow" result="shape"/></filter></defs></svg>