<svg xmlns="http://www.w3.org/2000/svg" xmlns:xlink="http://www.w3.org/1999/xlink" id="Layer_1" x="0" y="0" version="1.1" viewBox="0 0 387.4 438.7" xml:space="preserve" style="enable-background:new 0 0 387.4 438.7"><style type="text/css">.st0{fill:url(#XMLID_15_)}.st1{fill:url(#XMLID_16_)}.st2{fill:none}.st3{fill:url(#XMLID_17_)}.st4{fill:url(#XMLID_18_)}.st5{fill:url(#XMLID_19_)}.st6{fill:url(#XMLID_20_)}.st7{fill:url(#XMLID_21_)}.st8{fill:url(#XMLID_22_)}</style><g id="XMLID_219_"><linearGradient id="XMLID_15_" x1="3.588" x2="155.982" y1="282.692" y2="282.692" gradientUnits="userSpaceOnUse"><stop offset="0" style="stop-color:#b6b0e7"/><stop offset=".049" style="stop-color:#b2ace7"/><stop offset=".419" style="stop-color:#9b91e7"/><stop offset=".748" style="stop-color:#8c81e7"/><stop offset="1" style="stop-color:#877be7"/></linearGradient><path id="XMLID_412_" d="M81.5,176.6l-75.2-43l0.1,85.5L6.3,370.5c0,14.7,7.8,28.2,20.6,35.5l35.4,20.3 c12.6,7.2,27.2,7.2,39.8,0.1l53.6-30.5" class="st0"/><linearGradient id="XMLID_16_" x1="156" x2="311" y1="307.321" y2="307.321" gradientUnits="userSpaceOnUse"><stop offset="0" style="stop-color:#6254c4"/><stop offset="1" style="stop-color:#7567db"/></linearGradient><polyline id="XMLID_411_" points="234 350 234 263.2 233.1 262.7 233.1 262.7 156 218.8 156 220.4 156.2 395.9 156.2 395.9 156.2 395.9" class="st1"/><polygon id="XMLID_410_" points="232.7 262.7 155.5 218.8 232.5 262.8" class="st2"/><polygon id="XMLID_386_" points="233.5 176.8 233.5 176.8 236.8 174.9" class="st2"/><linearGradient id="XMLID_17_" x1="234" x2="389" y1="241.72" y2="241.72" gradientUnits="userSpaceOnUse"><stop offset="0" style="stop-color:#5245b0"/><stop offset="1" style="stop-color:#6456d1"/></linearGradient><path id="XMLID_384_" d="M309.3,219.7L234,263.2v86.6l129.4-77c12.7-7.3,18.6-20.8,18.6-35.5v-18.3v-19.4 c0-14.6-7-28.1-19.7-35.5l-52.9-30.6L309.3,219.7L309.3,219.7z" class="st3"/><linearGradient id="XMLID_18_" x1="234" x2="385.788" y1="198.426" y2="198.426" gradientUnits="userSpaceOnUse"><stop offset="0" style="stop-color:#6254c4"/><stop offset="1" style="stop-color:#7567db"/></linearGradient><polyline id="XMLID_672_" points="234 263.2 309.3 219.7 309.3 219.7 309.4 133.6 309.4 133.6 234 176.5 234 176.5" class="st4"/><linearGradient id="XMLID_19_" x1="80.584" x2="80.584" y1="350.709" y2="350.709" gradientUnits="userSpaceOnUse"><stop offset="0" style="stop-color:#7a6dd9"/><stop offset="1" style="stop-color:#877be7"/></linearGradient><path id="XMLID_294_" d="M80.6,350.7" class="st5"/><linearGradient id="XMLID_20_" x1="81.538" x2="81.538" y1="349.8" y2="349.8" gradientUnits="userSpaceOnUse"><stop offset="0" style="stop-color:#7a6dd9"/><stop offset="1" style="stop-color:#877be7"/></linearGradient><path id="XMLID_293_" d="M81.5,349.8" class="st6"/><linearGradient id="XMLID_21_" x1="-2.117" x2="467.555" y1="222.359" y2="222.359" gradientUnits="userSpaceOnUse"><stop offset="0" style="stop-color:#7a6dd9"/><stop offset="1" style="stop-color:#877be7"/></linearGradient><path id="XMLID_292_" d="M11.6,48.9c-3.3,5.9-5.2,13-5.2,20l0,63.9l0.2,0.8L79,176.6v86v0.6v90l77.1,42.5L156,219.3 l0,0l78,43.9l0,0v-0.6V176" class="st7"/><linearGradient id="XMLID_22_" x1="3.769" x2="413.738" y1="92.292" y2="92.292" gradientUnits="userSpaceOnUse"><stop offset="0" style="stop-color:#6254c4"/><stop offset=".308" style="stop-color:#6659c8"/><stop offset=".66" style="stop-color:#7467d5"/><stop offset="1" style="stop-color:#877be7"/></linearGradient><path id="XMLID_262_" d="M234,176.5L234,176.5l75.4-42.9l0,0L193,66.2v-0.1l-91.5-52.7c-12.6-7.2-26.9-7.3-39.5,0 L26.7,33.5c-6.6,3.8-11.8,9.1-15.4,15.4c0,0,0,0,0,0" class="st8"/></g></svg>